<?xml version="1.0" encoding="utf-8"?>
<!-- Generator: Adobe Illustrator 25.0.0, SVG Export Plug-In . SVG Version: 6.00 Build 0)  -->
<svg version="1.1" id="Layer_1" xmlns="http://www.w3.org/2000/svg" xmlns:xlink="http://www.w3.org/1999/xlink" x="0px" y="0px"
	 viewBox="0 0 451.9 330.3" style="enable-background:new 0 0 451.9 330.3;" xml:space="preserve">
<style type="text/css">
	.st0{opacity:0.5;fill:#71579B;}
	.st1{fill:#9505D8;}
	.st2{fill:#E42244;}
	.st3{fill:#110239;}
	.st4{fill:#E5E6ED;}
	.st5{fill:#01C7E2;}
	.st6{fill:#FFFFFF;}
	.st7{fill:#453964;}
	.st8{fill:#D0D1DE;}
	.st9{fill:#9698B5;}
	.st10{fill:#9A94AB;}
	.st11{fill:#F88667;}
	.st12{fill:#E45940;}
	.st13{fill:#5F078E;}
	.st14{fill:#B8B9CD;}
	.st15{fill:#FEFEFE;}
	.st16{opacity:0.32;fill:#B1B3C8;}
</style>
<ellipse class="st0" cx="233.8" cy="301" rx="199.1" ry="16.5"/>
<g>
	<path class="st1" d="M361,19.7c0,0,8.5,1.9,18.3,10.4l-11.8,21.5c0,0-4.5-4.8-12.1-6.5L361,19.7z"/>
	<path class="st2" d="M363.1,33.3c1-3.8,1.9-7.7,2.9-11.6c-3.1-1.5-5-2-5-2l-5.5,25.5c3.1-2.7,3.9-1.7,4.4-1.9
		C360.8,39.9,362.2,36.6,363.1,33.3z"/>
	<path class="st1" d="M314.9,8c0,0,33.3-3.3,51.8,6.2l-6.8,29c0,0-16.3-8.8-43.4-5L314.9,8z"/>
	<rect x="314.9" y="5.4" class="st3" width="2.7" height="114.1"/>
	<rect x="312.8" y="116" class="st3" width="6.7" height="5.4"/>
	<rect x="310.2" y="120.2" class="st3" width="12" height="2.7"/>
</g>
<g>
	
		<rect x="73.4" y="68.9" transform="matrix(0.1762 -0.9844 0.9844 0.1762 -24.783 184.2645)" class="st4" width="48.6" height="76.1"/>
	<g>
		
			<rect x="51.1" y="99.5" transform="matrix(0.1762 -0.9844 0.9844 0.1762 -45.1029 148.7564)" class="st3" width="30.5" height="3.6"/>
		
			<rect x="55.1" y="101.2" transform="matrix(0.1762 -0.9844 0.9844 0.1762 -42.5123 153.2827)" class="st3" width="30.5" height="1.8"/>
		
			<rect x="61.1" y="101.3" transform="matrix(0.1762 -0.9844 0.9844 0.1762 -38.5947 160.129)" class="st3" width="30.5" height="3.7"/>
		
			<rect x="65.6" y="103.2" transform="matrix(0.1762 -0.9844 0.9844 0.1762 -35.6839 165.2157)" class="st3" width="30.5" height="1.4"/>
		
			<rect x="71.4" y="104.4" transform="matrix(0.1762 -0.9844 0.9844 0.1762 -31.951 171.7388)" class="st3" width="30.5" height="1.2"/>
		
			<rect x="57.6" y="101.9" transform="matrix(0.1762 -0.9844 0.9844 0.1762 -40.8509 156.1868)" class="st3" width="30.5" height="1.2"/>
		
			<rect x="68.7" y="103.6" transform="matrix(0.1761 -0.9844 0.9844 0.1761 -33.6966 168.689)" class="st3" width="30.5" height="1.8"/>
		
			<rect x="75.5" y="104.3" transform="matrix(0.1762 -0.9844 0.9844 0.1762 -29.2503 176.4582)" class="st3" width="30.5" height="2.8"/>
		
			<rect x="79.1" y="105.5" transform="matrix(0.1762 -0.9844 0.9844 0.1762 -26.9503 180.4776)" class="st3" width="30.5" height="1.8"/>
		
			<rect x="82" y="106.4" transform="matrix(0.1761 -0.9844 0.9844 0.1761 -25.0616 183.7769)" class="st3" width="30.5" height="0.9"/>
		
			<rect x="88.8" y="107.8" transform="matrix(0.1761 -0.9844 0.9844 0.1761 -20.6384 191.5065)" class="st3" width="30.5" height="0.6"/>
		
			<rect x="84.7" y="106.6" transform="matrix(0.1762 -0.9844 0.9844 0.1762 -23.2859 186.881)" class="st3" width="30.5" height="1.5"/>
		
			<rect x="93" y="108.4" transform="matrix(0.1762 -0.9844 0.9844 0.1762 -17.9535 196.1989)" class="st3" width="30.5" height="0.8"/>
		
			<rect x="101.8" y="109.9" transform="matrix(0.1762 -0.9843 0.9843 0.1762 -12.261 206.1487)" class="st3" width="30.5" height="1"/>
		
			<rect x="111.7" y="111.7" transform="matrix(0.1762 -0.9844 0.9844 0.1762 -5.8245 217.3955)" class="st3" width="30.5" height="1"/>
		
			<rect x="94.3" y="108.8" transform="matrix(0.1761 -0.9844 0.9844 0.1761 -17.0866 197.7132)" class="st3" width="30.5" height="0.6"/>
		
			<rect x="100.1" y="109.9" transform="matrix(0.1763 -0.9843 0.9843 0.1763 -13.3325 204.2778)" class="st3" width="30.5" height="0.5"/>
		
			<rect x="109.9" y="111.5" transform="matrix(0.1761 -0.9844 0.9844 0.1761 -6.9884 215.358)" class="st3" width="30.5" height="0.7"/>
		
			<rect x="86.8" y="107" transform="matrix(0.1761 -0.9844 0.9844 0.1761 -21.9267 189.2548)" class="st3" width="30.5" height="1.5"/>
		
			<rect x="91.1" y="107.7" transform="matrix(0.1761 -0.9844 0.9844 0.1761 -19.1928 194.0328)" class="st3" width="30.5" height="1.6"/>
		
			<rect x="98.9" y="109.3" transform="matrix(0.1761 -0.9844 0.9844 0.1761 -14.0938 202.9411)" class="st3" width="30.5" height="1.3"/>
		
			<rect x="96.6" y="108.5" transform="matrix(0.1762 -0.9844 0.9844 0.1762 -15.6307 200.2579)" class="st3" width="30.5" height="2"/>
		
			<rect x="104.5" y="109.5" transform="matrix(0.1761 -0.9844 0.9844 0.1761 -10.4896 209.2403)" class="st3" width="30.5" height="2.8"/>
		
			<rect x="108" y="110.7" transform="matrix(0.1761 -0.9844 0.9844 0.1761 -8.2341 213.1821)" class="st3" width="30.5" height="1.7"/>
		
			<rect x="114.7" y="111.6" transform="matrix(0.1762 -0.9844 0.9844 0.1762 -3.9037 220.7536)" class="st3" width="30.5" height="2.2"/>
	</g>
</g>
<g>
	<path class="st5" d="M231,151.6c-8-9.1-31.8-21.4-25.6-35.6c5.3-12,30.8-10.6,27.7-25.1c-1.8-8.6-4.2-15.9,1.4-25.7
		c6-10.6,24.1-4.8,30.3-14.7c5.4-8.5-1.6-21.6,9.5-27.3c9.9-5,21.8,4.8,23.5,13.5c2.2,10.9-8.6,16-9.9,25.5c-0.9,6,4.6,8.1,7.8,12.4
		c3,4,5.7,9.9,5.9,14.9c0.6,15.1-15.9,17-23.7,26.6c-7.2,8.9,6.1,14.6,4.1,24.2c-2.2,10.4-17,16.1-27.4,15.9
		C247.4,156.2,236,157.3,231,151.6z"/>
	<g>
		<path class="st6" d="M241.5,156.6c-0.1,0-0.1,0-0.2-0.1c-0.3-0.2-0.5-0.5-0.3-0.8c0.1-0.2,14.9-22.4,15.7-50.2
			c0.6-18.6,8.3-30.4,14.6-40.2c3.8-5.9,7.2-11,7.7-16.2c0-0.4,0.4-0.7,0.9-0.7c0.5,0,0.8,0.4,0.7,0.8c-0.6,5.5-4,10.8-7.9,16.8
			c-6.2,9.6-13.8,21.3-14.4,39.4c-0.9,28.2-15.9,50.6-16,50.8C242.1,156.5,241.8,156.7,241.5,156.6z"/>
	</g>
	<g>
		<path class="st6" d="M258,105.6c-0.4-0.1-0.6-0.4-0.6-0.7c0-0.4,0.4-0.7,0.8-0.6c6.2,0.4,14.6-3.3,17.1-9.4
			c0.3-0.7,0.6-1.5,0.9-2.4c1.5-4.1,3.4-9.2,7.4-11.1c2-0.9,4.2-0.9,6.7,0c0.4,0.1,0.6,0.5,0.4,0.9c-0.2,0.4-0.6,0.5-1,0.4
			c-2.1-0.7-3.9-0.7-5.5,0c-3.4,1.6-5.2,6.4-6.6,10.2c-0.3,0.9-0.6,1.7-0.9,2.4c-2.9,6.9-11.9,10.7-18.7,10.3
			C258.1,105.6,258.1,105.6,258,105.6z"/>
	</g>
	<g>
		<path class="st6" d="M253.6,104.9c-2.9-0.7-5.1-1.9-6.6-3.8c-2.3-3-2.7-7.5-1-13c0.2-0.5,0.4-1.2,0.6-1.9c1.3-4,3.3-10,1.3-13.4
			c-0.6-1.1-1.7-1.8-3.2-2.2c-0.4-0.1-0.7-0.5-0.5-0.9c0.1-0.4,0.5-0.6,1-0.5c0,0,0,0,0,0c1.9,0.5,3.3,1.4,4.1,2.9
			c2.3,3.9,0.1,10.3-1.2,14.5c-0.2,0.7-0.4,1.3-0.6,1.8c-1.5,5.1-1.3,9.2,0.8,11.8c1.7,2.3,4.8,3.5,9.1,3.7c0.4,0,0.7,0.3,0.7,0.7
			c0,0.4-0.4,0.7-0.8,0.6C255.9,105.3,254.7,105.1,253.6,104.9z"/>
	</g>
	<g>
		<path class="st6" d="M250,147.8c-0.9-0.2-1.7-0.4-2.4-0.9c-0.3-0.2-0.4-0.6-0.2-0.9c0.2-0.3,0.7-0.4,1-0.2
			c3.7,2.3,11.3-0.7,14.6-3c1.3-1,2.6-2.6,3.8-4.4c2.3-3.1,4.7-6.4,8.5-6.5c0.4,0,0.7,0.3,0.7,0.6c0,0.4-0.3,0.6-0.7,0.7
			c-3,0.1-5.1,3-7.2,5.9c-1.4,1.8-2.6,3.6-4.2,4.7C261,146,254.7,148.7,250,147.8z"/>
	</g>
	<g>
		<path class="st6" d="M243.9,146.5c-0.9-0.2-1.7-0.5-2.6-0.9c-4.7-2.5-7.5-8.9-8.2-12.6c-0.4-2,0.2-4.7,0.8-7.5
			c1-4.5,2.1-9.2-0.8-11.3c-0.3-0.2-0.4-0.7-0.1-0.9c0.3-0.3,0.7-0.3,1.1-0.1c3.6,2.6,2.4,8,1.3,12.6c-0.6,2.7-1.2,5.2-0.9,7
			c0.7,3.4,3.3,9.5,7.6,11.8c1.7,0.9,3.4,1.1,5.2,0.6c0.4-0.1,0.8,0.1,0.9,0.4c0.1,0.3-0.1,0.7-0.5,0.8
			C246.4,146.6,245.2,146.7,243.9,146.5z"/>
	</g>
</g>
<g>
	<path class="st1" d="M342.9,249.6c-13.8-3.4-24.7-6.5-25-21.1c-0.2-7.6,3.2-12.8,11.2-17c6.5-3.4,9.8-4.6,11.3-11.3
		c2.4-10.7-2.8-21.3,4-31.6c7.5-11.6,24.5-6.3,32.4-16.8c7-9.4,10.9-21.6,25.8-21.4c12.5,0.1,17.6,13.2,12.3,22.3
		c-3,5.1-8.3,8.7-10.4,14.2c-2,5.2,0.2,9.5,2.2,14.2c4.4,10.5,5.5,21.4-6.6,28.3c-7.2,4.2-12.8,7.8-10.2,15.6c2.7,8.2,4,12.9-6,19
		c-7.4,4.6-14.2,4.2-22.7,4.6c-8,0.3-18.7,2.5-26.2-0.9L342.9,249.6z"/>
	<g>
		<path class="st6" d="M347.4,242c-1.2-1.3-1.9-2.7-2.3-4.1c-1.7-6.1,4.2-12.3,9.5-17.8c2.7-2.8,5.2-5.5,6.4-7.8
			c3.3-6.2,4.2-11.8,3.5-20.5c-0.8-10.3,1.9-14.6,10.4-21.4c7.1-5.8,14.1-12.1,16.1-18.4c0.2-0.5,0.8-0.8,1.4-0.6
			c0.6,0.2,1,0.7,0.8,1.2c-2.1,6.7-9.4,13.2-16.7,19.1c-8.2,6.6-10.7,10.4-9.9,20.2c0.6,7.4,0.2,13.8-3.7,21.2
			c-1.3,2.4-3.9,5.2-6.6,8c-5.1,5.3-10.7,11.2-9.3,16.7c0.6,2.1,2.2,4.1,4.9,5.9c0.4,0.3,0.6,0.8,0.3,1.1c-0.3,0.3-0.9,0.3-1.3,0
			C349.4,244,348.3,243,347.4,242z"/>
	</g>
	<g>
		<path class="st6" d="M364.8,201.5c-0.1-0.2-0.2-0.3-0.2-0.5c0-0.5,0.4-0.8,1-0.7c5,0.5,8.7-3.4,12.7-7.5c3.5-3.7,7.2-7.6,12.3-8.7
			c0.6-0.1,1.2,0.2,1.5,0.6c0.2,0.5-0.1,1-0.6,1.1c-4.4,0.9-8,4.6-11.3,8.1c-4.1,4.3-8.3,8.7-14.4,8
			C365.3,201.9,365,201.7,364.8,201.5z"/>
	</g>
	<g>
		<path class="st6" d="M360.9,214.2c-0.1-0.1-0.1-0.2-0.2-0.3c-0.5-1.2-0.7-2.3-0.9-3.3c-0.3-1.7-0.6-3.1-2-4.9
			c-0.8-1-1.6-1.8-2.5-2.6c-1.7-1.7-3.6-3.5-4.4-6.3c-1.2-4-1.1-9,0.2-14.9c0.2-0.8,0.6-2,1.1-3.2c0.6-1.8,1.9-5.1,1.5-5.8
			c-0.2-0.4-0.1-0.9,0.4-1.1c0.5-0.2,1.1,0,1.4,0.4c0.8,1.3,0.1,3.6-1.3,7.2c-0.4,1.2-0.9,2.3-1,3c-0.9,3.9-1.6,9.5-0.3,14.2
			c0.7,2.4,2.1,3.8,3.9,5.4c0.9,0.9,1.8,1.7,2.7,2.8c1.8,2.2,2.1,4,2.4,5.7c0.2,1,0.4,1.9,0.8,3c0.2,0.4-0.1,0.9-0.6,0.9
			C361.5,214.7,361.1,214.5,360.9,214.2z"/>
	</g>
</g>
<g>
	<path class="st4" d="M114,277.6c-16.4-3-31.8-1.7-38.4-19.7c-5.3-14.2,7-27.6-5.3-37.4c-7.4-5.9-19.1-9.4-21.7-19.4
		c-2.7-10.5,10.7-17.1,8.3-27.1c-2-8.3-13.5-8.8-10.5-19.7c2.7-9.6,11.1-12,17.8-10.1c9,2.6,9.7,10.8,15.7,16.5
		c4,3.8,9.6,0,15.4-0.7c5.8-0.7,13.2-0.2,18.1,2.4c16,8.3,3.2,25.9,6.1,40.2c2.8,13.9,22.3,5.5,32.4,15.9
		c11.8,12.2,2.9,33.2-8.7,43.1C135.4,268.1,125.1,279.6,114,277.6z"/>
	<g>
		<path class="st6" d="M129.9,273.9c-0.1,0-0.2,0.1-0.3,0.1c-0.5,0.1-1.1-0.2-1.2-0.7c-0.1-0.4-10.8-36-36.8-59.5
			c-14.6-13.2-18.1-26.9-20.8-37.5c-1.6-6.2-2.9-11.5-6-14.4c-0.2-0.2-0.2-0.7,0.1-1c0.3-0.4,0.7-0.4,1-0.2c3.4,3.1,4.8,8.5,6.4,15
			c2.7,10.5,6.2,24,20.6,37c26.5,23.8,37.4,60,37.5,60.4C130.4,273.3,130.2,273.7,129.9,273.9z"/>
	</g>
	<g>
		<path class="st6" d="M92.7,212.8c-0.3,0.3-0.8,0.2-1,0c-0.3-0.3-0.2-0.8,0.1-1.2c5.3-5.2,8.7-15.2,5.2-21.5
			c-0.4-0.7-0.9-1.5-1.4-2.4c-2.3-3.9-5.2-8.7-3.7-13.3c0.7-2.3,2.4-4.3,5.1-6.1c0.4-0.3,0.9-0.2,1.1,0.1c0.2,0.4,0,0.8-0.4,1.2
			c-2.3,1.5-3.7,3.2-4.2,5c-1.3,4,1.4,8.4,3.6,12.1c0.5,0.8,1,1.6,1.4,2.4C102.4,196.3,98.5,207.1,92.7,212.8
			C92.7,212.7,92.7,212.7,92.7,212.8z"/>
	</g>
	<g>
		<path class="st6" d="M88.6,216.1c-2.8,2-5.5,2.9-8.1,2.7c-4-0.3-7.7-3.1-10.6-8.2c-0.3-0.5-0.6-1.1-0.9-1.7
			c-1.9-3.6-4.8-9-8.3-9.4c-1.1-0.2-2.3,0.2-3.4,1.1c-0.3,0.3-0.7,0.2-0.9-0.1c-0.2-0.3-0.1-0.8,0.3-1c0,0,0,0,0,0
			c1.5-1.2,3-1.7,4.5-1.5c4.1,0.6,7.2,6.2,9.2,10c0.3,0.6,0.7,1.2,0.9,1.7c2.7,4.7,6.1,7.4,9.6,7.6c3.1,0.2,6.5-1.5,10-5
			c0.4-0.4,0.9-0.4,1.1-0.1c0.3,0.3,0.3,0.8-0.1,1.2C90.8,214.4,89.7,215.3,88.6,216.1z"/>
	</g>
	<g>
		<path class="st6" d="M128.1,256.7c-1,0.6-2.2,1.1-3.4,1.3c-0.5,0.1-1-0.2-1.1-0.7c-0.1-0.5,0.2-1,0.8-1.1
			c6.3-1.1,10.4-11.2,11-16.5c0.2-2.2-0.5-4.9-1.3-7.8c-1.4-5.1-2.9-10.3,0.7-14c0.4-0.4,1-0.5,1.4-0.2c0.4,0.3,0.4,0.9,0,1.3
			c-2.8,3-1.5,7.7-0.2,12.3c0.9,3,1.7,5.9,1.4,8.5C136.9,244.6,133.7,253.3,128.1,256.7z"/>
	</g>
	<g>
		<path class="st6" d="M120.6,260.8c-1,0.6-2.2,1.1-3.4,1.3c-7,1.5-15.9-2.5-20-5.4c-2.2-1.6-4.1-4.5-6.1-7.5
			c-3.1-4.8-6.3-9.6-10.3-9c-0.4,0.1-0.8-0.2-0.8-0.7c0-0.4,0.3-0.9,0.7-0.9c4.9-0.8,8.6,4.7,11.8,9.6c1.9,2.9,3.8,5.7,5.7,7.1
			c3.8,2.7,12.3,6.5,18.6,5.1c2.5-0.6,4.4-1.9,5.6-4c0.3-0.4,0.8-0.6,1.3-0.4c0.5,0.2,0.6,0.8,0.4,1.3
			C123.2,258.7,122,259.9,120.6,260.8z"/>
	</g>
</g>
<polygon class="st3" points="257.3,296.9 213.2,296.9 216.8,243.6 253.7,243.6 "/>
<path class="st3" d="M263.1,288.3c-0.5-0.8-1.4-1.3-2.4-1.3h-24.4h-2h-24.4c-1,0-1.9,0.5-2.4,1.3l-6.7,10c-1.3,1.9,0.1,4.5,2.4,4.5
	h31.1h2h31.1c2.3,0,3.7-2.6,2.4-4.5L263.1,288.3z"/>
<path class="st3" d="M343.3,257.8H127.1c-6.9,0-12.4-5.6-12.4-12.4V108.7c0-6.9,5.6-12.4,12.4-12.4h216.2c6.9,0,12.4,5.6,12.4,12.4
	v136.7C355.7,252.2,350.2,257.8,343.3,257.8z"/>
<rect x="125.8" y="106.9" class="st5" width="218.8" height="138.5"/>
<g>
	<path class="st3" d="M93.6,239.2v10.7h2.7v-7.6c0-0.8,0.6-1.4,1.4-1.4h11.5c0.8,0,1.4,0.6,1.4,1.4v7.6h2.7v-10.7
		c0-0.8-0.6-1.4-1.4-1.4H95C94.2,237.8,93.6,238.4,93.6,239.2z"/>
	<path class="st3" d="M142.7,302.8H64.2c-2.6,0-4.7-2.1-4.7-4.7V251c0-2.6,2.1-4.7,4.7-4.7h78.5c2.6,0,4.7,2.1,4.7,4.7v47.1
		C147.4,300.7,145.3,302.8,142.7,302.8z"/>
	<path class="st7" d="M147.4,262v-11c0-2.6-2.1-4.7-4.7-4.7H64.2c-2.6,0-4.7,2.1-4.7,4.7v11c0,6.7,5.4,12.1,12.1,12.1h63.7
		C142,274.1,147.4,268.7,147.4,262z"/>
	<rect x="100.6" y="271.6" class="st8" width="5.6" height="6.4"/>
	<rect x="102.5" y="274.6" class="st3" width="1.8" height="1.6"/>
</g>
<g>
	<g>
		<rect x="253.5" y="200.6" class="st8" width="12" height="44.7"/>
		<rect x="253.5" y="200.6" class="st9" width="12" height="14"/>
		<g>
			<g>
				<path class="st1" d="M297.9,131.3h-0.3h-0.3H227v72.1h67.2h3.4h28.5v-43.9C326.1,144,313.5,131.3,297.9,131.3z"/>
				<path class="st1" d="M255.5,203.4h-57v-43.9c0-15.6,12.6-28.2,28.2-28.2h0.6c15.6,0,28.2,12.6,28.2,28.2V203.4z"/>
				<path class="st3" d="M250.6,197.2h-47.2v-36.4c0-12.9,10.5-23.4,23.4-23.4h0.5c12.9,0,23.4,10.5,23.4,23.4V197.2z"/>
			</g>
			<rect x="179.8" y="197.8" class="st1" width="54" height="5.5"/>
		</g>
		<g>
			<path class="st6" d="M296,176.7c1.7,0,3.4-2.7,3.4-6.6c0-7.8-5-13.9-13.6-13.9c-7.8,0-14,6.3-14,14.1c0,7.7,5.9,13.4,13.5,13.4
				c2.3,0,5.4-0.8,7.7-2.5l1.9,3.3c-2.4,1.9-6.5,3.1-9.6,3.1c-10,0-17.6-7.3-17.6-17.2c0-10,8-17.8,18.1-17.8
				c10.1,0,17.6,7.4,17.6,17.6c0,6.1-3.3,10.1-7.9,10.1c-2.5,0-4.3-0.9-4.8-3.2l-0.1-0.5c-1.6,2.3-3.8,3.3-6.1,3.3
				c-4.6,0-9-3.8-9-9.5c0-5.3,3.3-9.7,8.4-9.7c3.3,0,5.4,2.2,5.5,2.6v-2.1h5.1v13.8C294.5,176.2,295.1,176.7,296,176.7z M281,169.9
				c0,2.7,1.5,5.1,4,5.1c2.6,0,4.1-2.3,4.1-5.1c0-2.7-1.6-4.8-4.2-4.8C282.6,165.1,281,167.3,281,169.9z"/>
		</g>
	</g>
	<g>
		<path class="st4" d="M238.5,212.8c0.4-11.2,8.1-20.7,12.1-25v-2.4h-37.1c-7.6,0-12.1,3.9-16.1,10.2c-3,4.7-5.7,10.6-5.9,17.1
			c-0.6,15.2,2.8,22.6-7.2,32.7c-9.9,10.1-14.3,15.8-11.4,32.3h47c-2.9-16.4,1.5-22.2,11.4-32.3C241.3,235.4,238,228,238.5,212.8z"
			/>
		<g>
			<path class="st10" d="M244,188.9h-34.7c-0.4,0.5-0.9,1-1.3,1.5h34.7C243.1,189.9,243.6,189.4,244,188.9z"/>
			<path class="st10" d="M238.5,196.2h-34.7c-0.3,0.5-0.6,1-0.9,1.5h34.7C237.9,197.2,238.2,196.7,238.5,196.2z"/>
			<path class="st10" d="M234.9,203.4h-34.7c-0.2,0.5-0.4,1-0.5,1.5h34.7C234.5,204.5,234.7,203.9,234.9,203.4z"/>
			<path class="st10" d="M233.1,210.7h-34.7c-0.1,0.5-0.1,1-0.1,1.5H233C233,211.7,233.1,211.2,233.1,210.7z"/>
			<path class="st10" d="M232.9,217.9h-34.7c0,0.5,0,1,0,1.5h34.7C232.9,219,232.9,218.5,232.9,217.9z"/>
			<path class="st10" d="M233,225.2h-34.7c0,0.5,0,1,0,1.5H233C233,226.2,233,225.7,233,225.2z"/>
			<path class="st10" d="M232.7,232.4H198c-0.1,0.5-0.2,1-0.3,1.5h34.7C232.5,233.5,232.6,232.9,232.7,232.4z"/>
			<path class="st10" d="M230.3,239.7h-34.7c-0.3,0.5-0.6,1-0.9,1.5h34.7C229.7,240.7,230,240.2,230.3,239.7z"/>
			<path class="st10" d="M224.4,246.9h-34.7c-0.5,0.5-1,1-1.4,1.5h34.7C223.4,248,223.9,247.5,224.4,246.9z"/>
			<path class="st10" d="M218.1,254.2h-34.7c-0.4,0.5-0.7,1-1,1.5h34.7C217.4,255.2,217.8,254.7,218.1,254.2z"/>
			<path class="st10" d="M214.5,261.4h-34.7c-0.1,0.5-0.3,1-0.4,1.5h34.7C214.2,262.4,214.4,261.9,214.5,261.4z"/>
			<path class="st10" d="M213.5,268.7h-34.7c0,0.5,0,1,0,1.5h34.7C213.5,269.7,213.5,269.2,213.5,268.7z"/>
		</g>
	</g>
</g>
<g>
	<g>
		<g>
			<path class="st11" d="M195.8,201.8c-0.3-0.5-2.3,1.1-2.5,1.5c-0.4,0.6-1,1-1.4,1.9c-0.3,0.7-0.6,1.3-1,2
				c-0.2,0.4-0.1,0.8-0.3,1.2c-0.1,0.3-0.7,1.2-1,1.6c-0.1,0.1,0.1,0.2-0.2,0.4c0.8,0.6,0.8,1.2,1.3,2.1c0,0,0.6-0.6,1-0.8
				c0.3-0.2,2.3-0.9,2.6-1.1c1.2-0.5,1.7-0.9,1.9-1.1c0.2-0.2,1.1-0.4,1-0.8c-0.2-0.7-1.3-0.3-1.6-0.3c-0.5,0.1-1.2,0.5-2.1,0.5
				c-0.3,0-0.8-0.6-0.6-1.3c0.2-0.7,0.7-1.3,1.2-1.7c0.3-0.3,1.6-1.5,2-1.8c1-0.9,0.6-1.5-0.4-0.9c-0.2,0.1-1.7,1.3-1.8,1.4
				c0.1-0.2,0.3-0.3,0.4-0.4C194.6,203.5,196.2,202.4,195.8,201.8z"/>
		</g>
		<path class="st11" d="M154.6,184.8c0.1,0.1,0.1,0.3,0.2,0.4c0.8,1.2,1.6,2.5,2.6,3.5c0.6,0.6,1.6,1.2,2.1,1.8
			c0.2,0.3,0.4,0.5,0.6,0.7c-0.8,1.9-2.9,6.9-3.2,9c0,0-6.2-1.9-8-5C149,195.2,153.2,188.7,154.6,184.8z"/>
		<path class="st12" d="M155.6,196.2c0-1.9-0.7-3.9-1.8-5.4c-0.4-0.5-0.8-1-1.3-1.5c0.8-1.5,1.6-3.1,2.1-4.5
			c0.1,0.1,0.1,0.3,0.2,0.4c0.8,1.2,1.6,2.5,2.6,3.5c0.6,0.6,1.6,1.2,2.1,1.8c0.2,0.3,0.4,0.5,0.6,0.7c-0.8,1.9-2.9,6.9-3.2,9
			c0,0-1.1-0.3-2.4-0.9C155.2,198.4,155.6,197.3,155.6,196.2z"/>
		<path class="st3" d="M131.4,299.9c0,0-0.9,6.3,0,7.2c1,0.9,14.1,1.8,15.3,0.7c1.1-1.1,0.6-3.2-2.2-4c-2.9-0.9-4.4-0.2-6.3-1
			c-1.8-0.8-1.3-3.7-1.3-3.7L131.4,299.9z"/>
		<path class="st3" d="M153.6,299.9c0,0-0.9,6.3,0,7.2c1,0.9,14.1,1.8,15.3,0.7c1.1-1.1,0.6-3.2-2.2-4c-2.9-0.9-4.4-0.2-6.3-1
			c-1.8-0.8-1.3-3.7-1.3-3.7L153.6,299.9z"/>
		<path class="st1" d="M129.3,264.3c-3.2-17.7-3.2-30.2-3.2-36c2.1-0.3,4.3-0.4,6.6,0.2c4.2,1.1,8.4,2.2,12.6,3.2
			c-2.1,7.1-5.5,29.6-5.6,34.3c-0.1,5.7-1.5,36-1.5,36l-7.6,0.2C129.9,297.5,129.6,265.8,129.3,264.3z"/>
		<path class="st13" d="M138.6,230.1c2.2,0.7,4.5,1.1,6.7,1.5c-2.1,6.9-5.4,29.3-5.6,34.2c-1.5-2.8-7.1-12.8-10.3-20.4
			c-2.1-5.1-3.2-10.5-3.2-16c0,0,0,0,0-0.1C130.1,228.9,134,228.7,138.6,230.1z"/>
		<path class="st1" d="M133.4,228.2c2.8,0.8,7.9,2,11.8,3.2c2.9,6.6,11.1,24.2,12.7,31.2c2.2,9.7,2.2,38.8,2.2,38.8l-7.4,0.1
			c0,0-5-32.9-5.9-35.2c-3.6-9.2-10.1-15.6-12.7-20c-6.2-10.5-6.7-15.8-7.6-19.5C128.8,227.3,131.1,227.5,133.4,228.2z"/>
		<path class="st8" d="M151.5,203.3c1.6-3.1,0.3-5.4,3.7-4.3c5.5,1.8,10.8,13.6,14,14.4c4.4,1.1,20.8-4.6,20.8-4.6l1.7,4.2
			c0,0-21.6,9.4-25.1,8.5c-3.5-0.9-12.8-11-15.1-14.4C150.6,206,150.8,204.6,151.5,203.3z"/>
		<path class="st14" d="M151.5,203.3c1.6-3.1,0.3-5.4,3.7-4.3c5.5,1.8,10.8,13.6,14,14.4c4.4,1.1,20.8-4.6,20.8-4.6l1.7,4.2
			c0,0-21.6,9.4-25.1,8.5c-3.5-0.9-12.8-11-15.1-14.4C150.6,206,150.8,204.6,151.5,203.3z"/>
		<g>
			<path class="st8" d="M148.2,236.2c0,0-6.7-0.3-13.1-2.5c-4.8-1.6-8.9-4.3-9.6-6.3c0,0,7.6-19.7,12.8-26.4
				c5.2-6.7,11.3-6.8,11.3-6.8s4,3.7,7.7,4.5c0,0-3.4,14.6-5,20.4C150.8,224.8,148.2,236.2,148.2,236.2z"/>
			<path class="st14" d="M146.7,214c0-2.6-0.6-6.8,0.5-9.8c0.3,0.3,0.6,0.5,0.9,0.8c1.7,1.6,3.5,3.4,5.7,4.4
				c0.3,0.1,0.6,0.2,0.9,0.3c-0.9,3.5-1.8,7.1-2.4,9.4c-1.6,5.8-4.1,17.2-4.1,17.2s-1.9-0.1-4.6-0.5
				C146.6,229.4,146.8,221.3,146.7,214z"/>
		</g>
		<path class="st11" d="M155.1,175.9c0,0,5.3-3.7,8.4-1.7c3.1,2,4.9,3.7,4.6,5.2c-0.3,1.5-1.5,5.3-1.4,7.1c0.1,1.7,1,4.4,0.6,4.9
			c-0.4,0.6-2.3-0.3-2.6-0.1c-0.2,0.2-3.6,3.8-4.5,3.8c-0.9,0.1-5.7-5.9-5.7-8.2C154.7,184.5,153,179,155.1,175.9z"/>
		<path class="st3" d="M161.5,180c0.4,1.1,2.1,3,6.4,3.4c4.3,0.4,7.2-8.3-0.3-11.7c-7.5-3.4-8.6-0.7-10.2-0.9
			c-1.6-0.2-3.1,0-4.5,1.1c-2.4,1.9-4.2,4.9-2.5,9.7c1.7,4.9,4.3,5.7,4.3,5.7c0.6-0.8,1.4-2.4,0.9-3.3c-0.2-0.4-0.6-0.6-0.8-1.3
			c-0.5-1.2,1.1-2.8,2.6-1.6c0.7,0.6,0.3,2.2,0.5,2.9c0.2,0.8,0.6,0.9,0.9,0.9c0.6,0.1,1.9-1.3,1.7-3.6
			C160.3,179.9,161,178.9,161.5,180z"/>
		<path class="st11" d="M181.9,236.7c0.3,0.1,0.7,0.2,0.8,0.2c0.4,0.4,1.4,0.4,1.8,0.4c0.9,0,2.3-0.1,3.1,0.4c0.4,0.3,3,2,1.9,2.9
			c-0.2,0.1-0.6,0.2-0.7,0.2c-0.3-0.2-1-0.8-1-0.8s0.5,0.5,0.6,0.6c0.1,0.1,0.3,0.3,0.3,0.4c0.1,0.3-0.4,0.7-0.7,0.7
			c-0.3,0-0.4-0.3-0.5-0.5c0,0,0,0,0,0c0.1,0.2,0.5,0.5,0,1c-0.6,0.6-0.6,0.1-0.9-0.1c-0.1-0.1-0.2-0.2-0.3-0.2
			c0.1,0.1,0.4,0.4,0.5,0.6c0.2,0.3-0.7,0.9-1.2,0.6c-0.3-0.2-0.9-0.9-1.1-1c-0.2,0-0.5-0.1-0.7-0.2c-0.7-0.2-1.3-0.6-1.8-1.1
			c-0.2-0.2-0.7-0.6-0.9-0.9c-0.5-0.6-0.7-0.9-0.8-1.1C181.2,238.3,181.6,237.7,181.9,236.7z"/>
		<path class="st8" d="M180.6,240.8l3.4-4.6c0,0-12.4-11.7-17-17.5c-4.6-5.8-9.1-17-13-18.1c-3.9-1.1-8.1,0.7-6.4,6.4
			c1.7,5.7,12.5,14.3,14.6,16.9C164.4,226.6,178.4,239.2,180.6,240.8z"/>
	</g>
</g>
<g>
	<ellipse transform="matrix(0.2265 -0.974 0.974 0.2265 52.1871 250.8127)" class="st4" cx="184" cy="92.5" rx="33.3" ry="33.3"/>
	<ellipse transform="matrix(0.1214 -0.9926 0.9926 0.1214 69.818 263.9693)" class="st3" cx="184" cy="92.5" rx="28.4" ry="28.4"/>
	<g>
		<path class="st15" d="M184,93.3L184,93.3c-0.3,0-0.6-0.2-0.6-0.6V69.9c0-0.3,0.2-0.6,0.6-0.6h0c0.3,0,0.6,0.2,0.6,0.6v22.8
			C184.6,93,184.3,93.3,184,93.3z"/>
		<path class="st15" d="M184.5,93L184.5,93c-0.2,0.3-0.5,0.4-0.8,0.2L170.3,86c-0.3-0.1-0.4-0.5-0.2-0.7l0,0
			c0.1-0.3,0.5-0.4,0.7-0.2l13.5,7.3C184.6,92.4,184.7,92.7,184.5,93z"/>
	</g>
</g>
<g>
	<g>
		<rect x="301.3" y="236.2" class="st4" width="104.7" height="64.8"/>
		<polygon class="st3" points="353.7,271.5 406,239.1 406,236.2 301.3,236.2 301.3,239.1 		"/>
		<polygon class="st4" points="353.7,268.6 301.3,236.2 406,236.2 		"/>
	</g>
	<rect x="301.3" y="245.4" class="st16" width="74" height="55.6"/>
	<g>
		<rect x="286.6" y="248.2" class="st4" width="85.3" height="52.8"/>
		<polygon class="st3" points="329.2,276.9 371.9,250.5 371.9,248.2 286.6,248.2 286.6,250.5 		"/>
		<polygon class="st4" points="329.2,274.6 286.6,248.2 371.9,248.2 		"/>
	</g>
</g>
<path class="st6" d="M330.6,123.1h-2.7v-2.7c0-0.3-0.3-0.6-0.6-0.6h0c-0.3,0-0.6,0.3-0.6,0.6v2.7H324c-0.3,0-0.6,0.3-0.6,0.6v0
	c0,0.3,0.3,0.6,0.6,0.6h2.7v2.7c0,0.3,0.3,0.6,0.6,0.6h0c0.3,0,0.6-0.3,0.6-0.6v-2.7h2.7c0.3,0,0.6-0.3,0.6-0.6v0
	C331.1,123.3,330.9,123.1,330.6,123.1z"/>
<path class="st6" d="M156.5,146h-2.7v-2.7c0-0.3-0.3-0.6-0.6-0.6h0c-0.3,0-0.6,0.3-0.6,0.6v2.7h-2.7c-0.3,0-0.6,0.3-0.6,0.6v0
	c0,0.3,0.3,0.6,0.6,0.6h2.7v2.7c0,0.3,0.3,0.6,0.6,0.6h0c0.3,0,0.6-0.3,0.6-0.6v-2.7h2.7c0.3,0,0.6-0.3,0.6-0.6v0
	C157,146.3,156.8,146,156.5,146z"/>
<path class="st6" d="M304.9,218.9h-2.7v-2.7c0-0.3-0.3-0.6-0.6-0.6h0c-0.3,0-0.6,0.3-0.6,0.6v2.7h-2.7c-0.3,0-0.6,0.3-0.6,0.6v0
	c0,0.3,0.3,0.6,0.6,0.6h2.7v2.7c0,0.3,0.3,0.6,0.6,0.6h0c0.3,0,0.6-0.3,0.6-0.6V220h2.7c0.3,0,0.6-0.3,0.6-0.6v0
	C305.5,219.1,305.2,218.9,304.9,218.9z"/>
<path class="st6" d="M121.6,67h-2.7v-2.7c0-0.3-0.3-0.6-0.6-0.6h0c-0.3,0-0.6,0.3-0.6,0.6V67H115c-0.3,0-0.6,0.3-0.6,0.6v0
	c0,0.3,0.3,0.6,0.6,0.6h2.7v2.7c0,0.3,0.3,0.6,0.6,0.6h0c0.3,0,0.6-0.3,0.6-0.6v-2.7h2.7c0.3,0,0.6-0.3,0.6-0.6v0
	C122.1,67.3,121.9,67,121.6,67z"/>
<path class="st6" d="M233.6,41.1h-2.7v-2.7c0-0.3-0.3-0.6-0.6-0.6h0c-0.3,0-0.6,0.3-0.6,0.6v2.7H227c-0.3,0-0.6,0.3-0.6,0.6v0
	c0,0.3,0.3,0.6,0.6,0.6h2.7V45c0,0.3,0.3,0.6,0.6,0.6h0c0.3,0,0.6-0.3,0.6-0.6v-2.7h2.7c0.3,0,0.6-0.3,0.6-0.6v0
	C234.1,41.4,233.9,41.1,233.6,41.1z"/>
<path class="st6" d="M371.2,140.5h-2.7v-2.7c0-0.3-0.3-0.6-0.6-0.6h0c-0.3,0-0.6,0.3-0.6,0.6v2.7h-2.7c-0.3,0-0.6,0.3-0.6,0.6v0
	c0,0.3,0.3,0.6,0.6,0.6h2.7v2.7c0,0.3,0.3,0.6,0.6,0.6h0c0.3,0,0.6-0.3,0.6-0.6v-2.7h2.7c0.3,0,0.6-0.3,0.6-0.6v0
	C371.7,140.7,371.5,140.5,371.2,140.5z"/>
<path class="st6" d="M38.9,178h-2.7v-2.7c0-0.3-0.3-0.6-0.6-0.6h0c-0.3,0-0.6,0.3-0.6,0.6v2.7h-2.7c-0.3,0-0.6,0.3-0.6,0.6v0
	c0,0.3,0.3,0.6,0.6,0.6H35v2.7c0,0.3,0.3,0.6,0.6,0.6h0c0.3,0,0.6-0.3,0.6-0.6v-2.7h2.7c0.3,0,0.6-0.3,0.6-0.6v0
	C39.5,178.3,39.2,178,38.9,178z"/>
<g>
	<path class="st1" d="M151.4,44.7c0.1-0.5,0.1-0.9,0.1-1.4c0-0.5,0-1-0.1-1.4l-2.2-0.3c-0.1-0.3-0.2-0.7-0.3-1l1.7-1.4
		c-0.4-0.9-0.9-1.7-1.4-2.4l-2.1,0.8c-0.2-0.3-0.5-0.5-0.7-0.7l0.8-2.1c-0.7-0.6-1.6-1.1-2.4-1.4l-1.4,1.7c-0.3-0.1-0.6-0.2-1-0.3
		l-0.3-2.2c-0.5-0.1-0.9-0.1-1.4-0.1s-1,0-1.4,0.1l-0.3,2.2c-0.3,0.1-0.7,0.2-1,0.3l-1.4-1.7c-0.9,0.4-1.7,0.8-2.4,1.4l0.8,2.1
		c-0.3,0.2-0.5,0.5-0.7,0.7l-2.1-0.8c-0.6,0.7-1.1,1.6-1.4,2.4l1.7,1.4c-0.1,0.3-0.2,0.6-0.3,1l-2.2,0.3c-0.1,0.5-0.1,0.9-0.1,1.4
		c0,0.5,0,1,0.1,1.4l2.2,0.3c0.1,0.3,0.2,0.7,0.3,1l-1.7,1.4c0.4,0.9,0.9,1.7,1.4,2.4l2.1-0.8c0.2,0.3,0.5,0.5,0.7,0.7l-0.8,2.1
		c0.7,0.6,1.6,1.1,2.4,1.4l1.4-1.7c0.3,0.1,0.6,0.2,1,0.3l0.3,2.2c0.5,0.1,0.9,0.1,1.4,0.1s1,0,1.4-0.1l0.3-2.2
		c0.3-0.1,0.7-0.2,1-0.3l1.4,1.7c0.9-0.4,1.7-0.8,2.4-1.4l-0.8-2.1c0.3-0.2,0.5-0.5,0.7-0.7l2.1,0.8c0.6-0.7,1.1-1.6,1.4-2.4L149,46
		c0.1-0.3,0.2-0.6,0.3-1L151.4,44.7z M140.7,48.9c-3.1,0-5.7-2.5-5.7-5.7c0-3.1,2.5-5.7,5.7-5.7c3.1,0,5.7,2.5,5.7,5.7
		C146.4,46.4,143.9,48.9,140.7,48.9z"/>
	<g>
		<path class="st3" d="M140.7,36.9c-3.5,0-6.4,2.8-6.4,6.4c0,3.5,2.8,6.4,6.4,6.4c3.5,0,6.4-2.8,6.4-6.4
			C147.1,39.7,144.3,36.9,140.7,36.9z M140.7,47.2c-2.2,0-4-1.8-4-4c0-2.2,1.8-4,4-4c2.2,0,4,1.8,4,4
			C144.7,45.4,142.9,47.2,140.7,47.2z"/>
	</g>
</g>
<g>
	<path class="st5" d="M180.7,35.2c0.2-0.5,0.5-0.9,0.6-1.4c0.2-0.5,0.3-1,0.4-1.5l-2.2-1.2c0.1-0.4,0.1-0.8,0.1-1.1l2.3-0.8
		c-0.1-1.1-0.3-2.1-0.6-3.1L179,26c-0.1-0.3-0.3-0.7-0.5-1l1.6-1.9c-0.6-0.9-1.2-1.7-2-2.4L176,22c-0.3-0.2-0.6-0.5-0.9-0.6l0.5-2.4
		c-0.5-0.2-0.9-0.5-1.4-0.6c-0.5-0.2-1-0.3-1.5-0.4l-1.2,2.2c-0.4-0.1-0.8-0.1-1.1-0.1l-0.8-2.3c-1.1,0.1-2.1,0.3-3.1,0.6l0.1,2.5
		c-0.3,0.1-0.7,0.3-1,0.5l-1.9-1.6c-0.9,0.6-1.7,1.2-2.4,2l1.3,2.1c-0.2,0.3-0.5,0.6-0.6,0.9l-2.4-0.5c-0.2,0.5-0.5,0.9-0.6,1.4
		c-0.2,0.5-0.3,1-0.4,1.5l2.2,1.2c-0.1,0.4-0.1,0.8-0.1,1.1l-2.3,0.8c0.1,1.1,0.3,2.1,0.6,3.1l2.5-0.1c0.1,0.3,0.3,0.7,0.5,1
		l-1.6,1.9c0.6,0.9,1.2,1.7,2,2.4l2.1-1.3c0.3,0.2,0.6,0.5,0.9,0.6l-0.5,2.4c0.5,0.2,0.9,0.5,1.4,0.6c0.5,0.2,1,0.3,1.5,0.4l1.2-2.2
		c0.4,0.1,0.8,0.1,1.1,0.1l0.8,2.3c1.1-0.1,2.1-0.3,3.1-0.6l-0.1-2.5c0.3-0.1,0.7-0.3,1-0.5l1.9,1.6c0.9-0.6,1.7-1.2,2.4-2l-1.3-2.1
		c0.2-0.3,0.5-0.6,0.6-0.9L180.7,35.2z M167.8,35.6c-3.3-1.2-5-4.8-3.8-8.1c1.2-3.3,4.8-5,8.1-3.8s5,4.8,3.8,8.1
		C174.7,35.1,171.1,36.8,167.8,35.6z"/>
	<g>
		<path class="st3" d="M172.4,23c-3.7-1.3-7.8,0.6-9.1,4.3c-1.3,3.7,0.6,7.8,4.3,9.1c3.7,1.3,7.8-0.6,9.1-4.3
			C178,28.4,176.1,24.3,172.4,23z M168.5,33.8c-2.3-0.8-3.5-3.3-2.7-5.6c0.8-2.3,3.3-3.5,5.6-2.7c2.3,0.8,3.5,3.3,2.7,5.6
			C173.3,33.4,170.8,34.6,168.5,33.8z"/>
	</g>
</g>
</svg>
